<svg width="22" height="19" viewBox="0 0 22 19" fill="none" xmlns="http://www.w3.org/2000/svg">
<g id="arrow-return">
<path id="Vector 57 (Stroke)" fill-rule="evenodd" clip-rule="evenodd" d="M1.25 0.25C0.835787 0.25 0.5 0.585786 0.5 1V8.2C0.5 10.2711 2.17893 11.95 4.25 11.95H18.9393L13.9197 16.9697C13.6268 17.2626 13.6268 17.7374 13.9197 18.0303C14.2126 18.3232 14.6874 18.3232 14.9803 18.0303L21.2803 11.7303C21.5732 11.4374 21.5732 10.9626 21.2803 10.6697L15.2803 4.66967C14.9874 4.37678 14.5126 4.37678 14.2197 4.66967C13.9268 4.96256 13.9268 5.43744 14.2197 5.73033L18.9393 10.45H4.25C3.00736 10.45 2 9.44264 2 8.2V1C2 0.585786 1.66421 0.25 1.25 0.25Z" fill="#0AB968"/>
</g>
</svg>
