<svg width="17" height="17" viewBox="0 0 17 17" fill="none" xmlns="http://www.w3.org/2000/svg">
<g id="arrow-refresh">
<path id="Ellipse 7 (Stroke)" fill-rule="evenodd" clip-rule="evenodd" d="M8.561 5.17969C5.68391 5.17969 3.35156 7.51203 3.35156 10.3891C3.35156 13.2662 5.68391 15.5986 8.561 15.5986C11.4381 15.5986 13.7704 13.2662 13.7704 10.3891C13.7704 10.113 13.9943 9.88913 14.2704 9.88913C14.5466 9.88913 14.7704 10.113 14.7704 10.3891C14.7704 13.8185 11.9904 16.5986 8.561 16.5986C5.13162 16.5986 2.35156 13.8185 2.35156 10.3891C2.35156 6.95975 5.13162 4.17969 8.561 4.17969C9.76838 4.17969 10.4461 4.31805 10.8942 4.49913C11.1173 4.58931 11.2698 4.685 11.3765 4.75195L11.3805 4.75444C11.4949 4.82621 11.5096 4.8301 11.5203 4.8326C11.7891 4.89557 11.956 5.16457 11.8931 5.43344C11.8301 5.70231 11.5611 5.86923 11.2922 5.80626C11.104 5.76219 10.9575 5.66988 10.8648 5.61143C10.8594 5.60802 10.8542 5.60474 10.8491 5.60158C10.7501 5.53947 10.6589 5.48262 10.5194 5.42627C10.2368 5.31205 9.7018 5.17969 8.561 5.17969Z" fill="#343A40"/>
<path id="Vector 11 (Stroke)" fill-rule="evenodd" clip-rule="evenodd" d="M8.96224 1.36933C9.18959 1.21259 9.50095 1.26983 9.65769 1.49718L11.8864 4.72985C12.188 5.1673 12.0948 5.76423 11.6742 6.08897L8.9552 8.18842C8.73663 8.35719 8.42263 8.31681 8.25387 8.09824C8.0851 7.87967 8.12548 7.56568 8.34405 7.39691L11.0631 5.29745L8.83439 2.06479C8.67765 1.83744 8.73489 1.52607 8.96224 1.36933Z" fill="#343A40"/>
</g>
</svg>
