<svg width="191" height="26" viewBox="0 0 191 26" fill="none" xmlns="http://www.w3.org/2000/svg">
<g id="Barter Place">
<path d="M0 0.188477H8.83047C10.534 0.188477 11.9652 0.483984 13.124 1.075C14.2945 1.65443 15.1636 2.44824 15.7314 3.45644C16.3109 4.46465 16.5948 5.60032 16.5832 6.86348C16.5948 8.3584 16.224 9.52884 15.4707 10.3748C14.7174 11.2092 13.7208 11.8002 12.4809 12.1479V12.3912C13.3036 12.4376 14.1033 12.7157 14.8797 13.2256C15.6677 13.7355 16.3167 14.4598 16.8266 15.3984C17.3365 16.3255 17.5914 17.4206 17.5914 18.6838C17.5798 19.9817 17.2727 21.1348 16.6701 22.143C16.0791 23.1396 15.152 23.9276 13.8889 24.507C12.6373 25.0749 11.0555 25.3588 9.14336 25.3588H0V0.188477ZM9.10859 22.5775C10.9743 22.5775 12.3534 22.2183 13.2457 21.4998C14.138 20.7813 14.5784 19.8311 14.5668 18.649C14.5784 17.7915 14.364 17.0034 13.9236 16.285C13.4833 15.5665 12.8575 14.9928 12.0463 14.5641C11.2467 14.1353 10.3254 13.9209 9.28242 13.9209H3.12891V22.5775H9.10859ZM8.72617 11.2092C9.63008 11.2092 10.4529 11.0354 11.1945 10.6877C11.9362 10.3285 12.5214 9.82435 12.9502 9.17539C13.379 8.51484 13.5934 7.75579 13.5934 6.89824C13.5934 6.14499 13.4195 5.47285 13.0719 4.88183C12.7242 4.29082 12.1911 3.82728 11.4727 3.49121C10.7658 3.14355 9.88503 2.96973 8.83047 2.96973H3.12891V11.2092H8.72617Z" fill="black"/>
<path d="M20.7551 20.0049C20.7551 18.058 21.4214 16.6848 22.7541 15.8852C24.0984 15.074 25.7961 14.593 27.8473 14.4424C28.6469 14.3844 29.5971 14.3265 30.698 14.2686C31.799 14.2106 32.5522 14.1758 32.9578 14.1643V12.6346C32.9578 11.4178 32.5928 10.4849 31.8627 9.83594C31.1442 9.17539 30.0839 8.84512 28.6816 8.84512C27.5344 8.84512 26.5957 9.08268 25.8656 9.55781C25.1355 10.0214 24.6604 10.6298 24.4402 11.383H21.3113C21.4388 10.3748 21.8328 9.48249 22.4934 8.70605C23.1539 7.92962 24.0288 7.32702 25.1182 6.89824C26.2191 6.45788 27.4533 6.23769 28.8207 6.23769C30.6401 6.23769 32.2799 6.70124 33.74 7.62832C35.2002 8.54381 35.9245 10.3053 35.9129 12.9127V25.3588H32.9578V22.7861H32.8187C32.4363 23.5742 31.77 24.2753 30.8197 24.8895C29.8811 25.4921 28.67 25.7992 27.1867 25.8107C25.9815 25.7992 24.8922 25.5674 23.9187 25.1154C22.9453 24.6519 22.1747 23.9855 21.6068 23.1164C21.039 22.2357 20.7551 21.1985 20.7551 20.0049ZM23.7449 20.1439C23.7565 21.1174 24.1215 21.859 24.84 22.3689C25.5701 22.8788 26.5378 23.1338 27.743 23.1338C28.8207 23.1338 29.7536 22.9194 30.5416 22.4906C31.3296 22.0618 31.9264 21.494 32.332 20.7871C32.7492 20.0802 32.9578 19.3212 32.9578 18.51V16.6152C32.6913 16.6268 31.9264 16.679 30.6633 16.7717L28.1949 16.9455C26.7811 17.0382 25.686 17.3453 24.9096 17.8668C24.1447 18.3883 23.7565 19.1473 23.7449 20.1439Z" fill="black"/>
<path d="M40.7105 6.48105H43.5961V9.3666H43.8047C44.1408 8.41634 44.7549 7.6515 45.6473 7.07207C46.5512 6.48105 47.5594 6.17975 48.6719 6.16816C48.8341 6.16816 48.9616 6.17396 49.0543 6.18555C49.1934 6.18555 49.3962 6.19134 49.6627 6.20293C49.9292 6.21452 50.1204 6.22611 50.2363 6.23769V9.2623C49.6337 9.12324 49.0311 9.05371 48.4285 9.05371C47.5362 9.05371 46.7308 9.24492 46.0123 9.62734C45.2938 10.0098 44.726 10.537 44.3088 11.2092C43.9032 11.8813 43.7004 12.6346 43.7004 13.4689V25.3588H40.7105V6.48105Z" fill="black"/>
<path d="M62.5781 8.98418H58.6148V19.9354C58.6033 21.0363 58.8176 21.7837 59.258 22.1777C59.71 22.5602 60.3184 22.7514 61.0832 22.7514C61.5352 22.7514 61.9697 22.734 62.3869 22.6992L62.8562 22.6818V25.4631C62.2305 25.5558 61.5352 25.6021 60.7703 25.6021C59.8896 25.6021 59.0552 25.4225 58.2672 25.0633C57.4792 24.6924 56.836 24.1362 56.3377 23.3945C55.8394 22.6529 55.5902 21.7548 55.5902 20.7002V8.98418H52.7395V6.48105H55.5902V1.96152H58.6148V6.48105H62.5781V8.98418Z" fill="black"/>
<path d="M74.1551 25.7412C72.3588 25.7412 70.7944 25.3414 69.4617 24.5418C68.129 23.7422 67.1034 22.6123 66.385 21.1521C65.6781 19.692 65.3246 18.0001 65.3246 16.0764C65.3246 14.1527 65.6781 12.4492 66.385 10.9658C67.1034 9.4709 68.1059 8.31204 69.3922 7.48926C70.6901 6.65488 72.185 6.23769 73.8769 6.23769C75.3023 6.23769 76.6292 6.55638 77.8576 7.19375C79.086 7.81953 80.0826 8.83932 80.8475 10.2531C81.6239 11.6553 82.0121 13.4574 82.0121 15.6592V16.9107H68.3144C68.3608 18.2202 68.6331 19.3385 69.1314 20.2656C69.6413 21.1927 70.3251 21.8996 71.1826 22.3863C72.0402 22.8615 73.031 23.099 74.1551 23.099C75.2212 23.099 76.1193 22.902 76.8494 22.508C77.5911 22.1024 78.1531 21.5809 78.5355 20.9436H81.734C81.4327 21.9054 80.9286 22.7514 80.2217 23.4814C79.5264 24.1999 78.6572 24.7562 77.6143 25.1502C76.5829 25.5442 75.4298 25.7412 74.1551 25.7412ZM78.9875 14.3729C78.9875 13.3299 78.7731 12.3912 78.3443 11.5568C77.9271 10.7225 77.3303 10.0677 76.5539 9.59258C75.7891 9.11745 74.8967 8.87988 73.8769 8.87988C72.8224 8.87988 71.8837 9.12903 71.0609 9.62734C70.2497 10.1256 69.6066 10.7978 69.1314 11.6437C68.6679 12.4781 68.4014 13.3878 68.3318 14.3729H78.9875Z" fill="black"/>
<path d="M85.9059 6.48105H88.7914V9.3666H89C89.3361 8.41634 89.9503 7.6515 90.8426 7.07207C91.7465 6.48105 92.7547 6.17975 93.8672 6.16816C94.0294 6.16816 94.1569 6.17396 94.2496 6.18555C94.3887 6.18555 94.5915 6.19134 94.858 6.20293C95.1245 6.21452 95.3158 6.22611 95.4316 6.23769V9.2623C94.829 9.12324 94.2264 9.05371 93.6238 9.05371C92.7315 9.05371 91.9261 9.24492 91.2076 9.62734C90.4891 10.0098 89.9213 10.537 89.5041 11.2092C89.0985 11.8813 88.8957 12.6346 88.8957 13.4689V25.3588H85.9059V6.48105Z" fill="black"/>
<path d="M107.669 0.188477H116.221C118.122 0.188477 119.715 0.536132 121.002 1.23144C122.288 1.92676 123.244 2.87702 123.87 4.08223C124.496 5.27585 124.809 6.64329 124.809 8.18457C124.809 9.71426 124.496 11.0875 123.87 12.3043C123.244 13.5095 122.288 14.4656 121.002 15.1725C119.727 15.8678 118.145 16.2154 116.256 16.2154H110.798V25.3588H107.669V0.188477ZM116.117 13.4342C118.029 13.4342 119.437 12.959 120.341 12.0088C121.245 11.0585 121.703 9.78379 121.714 8.18457C121.703 6.58535 121.239 5.31641 120.324 4.37773C119.42 3.43906 118.006 2.96973 116.082 2.96973H110.798V13.4342H116.117Z" fill="black"/>
<path d="M131.796 25.3588H128.807V0.188477H131.796V25.3588Z" fill="black"/>
<path d="M135.655 20.0049C135.655 18.058 136.322 16.6848 137.654 15.8852C138.999 15.074 140.696 14.593 142.748 14.4424C143.547 14.3844 144.498 14.3265 145.598 14.2686C146.699 14.2106 147.453 14.1758 147.858 14.1643V12.6346C147.858 11.4178 147.493 10.4849 146.763 9.83594C146.045 9.17539 144.984 8.84512 143.582 8.84512C142.435 8.84512 141.496 9.08268 140.766 9.55781C140.036 10.0214 139.561 10.6298 139.341 11.383H136.212C136.339 10.3748 136.733 9.48249 137.394 8.70605C138.054 7.92962 138.929 7.32702 140.019 6.89824C141.119 6.45788 142.354 6.23769 143.721 6.23769C145.54 6.23769 147.18 6.70124 148.64 7.62832C150.101 8.54381 150.825 10.3053 150.813 12.9127V25.3588H147.858V22.7861H147.719C147.337 23.5742 146.67 24.2753 145.72 24.8895C144.781 25.4921 143.57 25.7992 142.087 25.8107C140.882 25.7992 139.793 25.5674 138.819 25.1154C137.846 24.6519 137.075 23.9855 136.507 23.1164C135.939 22.2357 135.655 21.1985 135.655 20.0049ZM138.645 20.1439C138.657 21.1174 139.022 21.859 139.74 22.3689C140.47 22.8788 141.438 23.1338 142.643 23.1338C143.721 23.1338 144.654 22.9194 145.442 22.4906C146.23 22.0618 146.827 21.494 147.232 20.7871C147.65 20.0802 147.858 19.3212 147.858 18.51V16.6152C147.592 16.6268 146.827 16.679 145.564 16.7717L143.095 16.9455C141.682 17.0382 140.586 17.3453 139.81 17.8668C139.045 18.3883 138.657 19.1473 138.645 20.1439Z" fill="black"/>
<path d="M163.329 25.7412C161.579 25.7412 160.049 25.3298 158.74 24.507C157.442 23.6842 156.445 22.537 155.75 21.0652C155.055 19.5819 154.707 17.8958 154.707 16.0068C154.707 14.1063 155.06 12.4202 155.767 10.9484C156.486 9.4651 157.494 8.31204 158.792 7.48926C160.09 6.65488 161.579 6.23769 163.259 6.23769C164.58 6.23769 165.78 6.48685 166.858 6.98516C167.947 7.47187 168.833 8.16719 169.517 9.07109C170.201 9.975 170.618 11.0122 170.769 12.1826H167.779C167.547 11.2439 167.043 10.4617 166.267 9.83594C165.502 9.19857 164.523 8.87988 163.329 8.87988C162.216 8.87988 161.231 9.1696 160.374 9.74902C159.528 10.3285 158.867 11.1512 158.392 12.2174C157.929 13.2719 157.697 14.5003 157.697 15.9025C157.697 17.3395 157.929 18.6027 158.392 19.692C158.856 20.7697 159.51 21.6041 160.356 22.1951C161.202 22.7745 162.193 23.0643 163.329 23.0643C164.453 23.0643 165.409 22.7803 166.197 22.2125C166.997 21.6331 167.524 20.8277 167.779 19.7963H170.769C170.606 20.932 170.201 21.9518 169.552 22.8557C168.903 23.7596 168.04 24.4665 166.962 24.9764C165.896 25.4863 164.685 25.7412 163.329 25.7412Z" fill="black"/>
<path d="M182.38 25.7412C180.584 25.7412 179.02 25.3414 177.687 24.5418C176.354 23.7422 175.329 22.6123 174.61 21.1521C173.903 19.692 173.55 18.0001 173.55 16.0764C173.55 14.1527 173.903 12.4492 174.61 10.9658C175.329 9.4709 176.331 8.31204 177.618 7.48926C178.915 6.65488 180.41 6.23769 182.102 6.23769C183.528 6.23769 184.855 6.55638 186.083 7.19375C187.311 7.81953 188.308 8.83932 189.073 10.2531C189.849 11.6553 190.237 13.4574 190.237 15.6592V16.9107H176.54C176.586 18.2202 176.859 19.3385 177.357 20.2656C177.867 21.1927 178.55 21.8996 179.408 22.3863C180.266 22.8615 181.256 23.099 182.38 23.099C183.447 23.099 184.345 22.902 185.075 22.508C185.816 22.1024 186.379 21.5809 186.761 20.9436H189.959C189.658 21.9054 189.154 22.7514 188.447 23.4814C187.752 24.1999 186.883 24.7562 185.84 25.1502C184.808 25.5442 183.655 25.7412 182.38 25.7412ZM187.213 14.3729C187.213 13.3299 186.998 12.3912 186.57 11.5568C186.153 10.7225 185.556 10.0677 184.779 9.59258C184.014 9.11745 183.122 8.87988 182.102 8.87988C181.048 8.87988 180.109 9.12903 179.286 9.62734C178.475 10.1256 177.832 10.7978 177.357 11.6437C176.893 12.4781 176.627 13.3878 176.557 14.3729H187.213Z" fill="black"/>
</g>
</svg>
