<svg width="24" height="24" viewBox="0 0 24 24" fill="none" xmlns="http://www.w3.org/2000/svg">
<g clip-path="url(#clip0_310_6983)">
<rect x="4.5" y="4.5" width="15" height="15" rx="3.5" fill="#0AB968" stroke="#0AB968"/>
<path d="M14.9696 8.96967C15.2625 8.67678 15.7374 8.67678 16.0303 8.96967C16.3196 9.25897 16.3231 9.72582 16.0409 10.0195L12.0487 15.0097C12.043 15.0169 12.0368 15.0238 12.0303 15.0303C11.7374 15.3232 11.2625 15.3232 10.9696 15.0303L8.32319 12.3839C8.03029 12.091 8.03029 11.6161 8.32319 11.3232C8.61608 11.0303 9.09095 11.0303 9.38385 11.3232L11.4774 13.4167L14.9497 8.9921C14.9559 8.98424 14.9626 8.97674 14.9696 8.96967Z" fill="white"/>
</g>
<rect x="2" y="2" width="20" height="20" rx="6" stroke="#DDFFF1" stroke-width="4"/>
<defs>
<clipPath id="clip0_310_6983">
<rect x="4" y="4" width="16" height="16" rx="4" fill="white"/>
</clipPath>
</defs>
</svg>
