<svg width="16" height="17" viewBox="0 0 16 17" fill="none" xmlns="http://www.w3.org/2000/svg">
<g id="plus">
<path id="Vector (Stroke)" fill-rule="evenodd" clip-rule="evenodd" d="M8 2.49902C8.27614 2.49902 8.5 2.72288 8.5 2.99902V7.99902H13.5C13.7761 7.99902 14 8.22288 14 8.49902C14 8.77517 13.7761 8.99902 13.5 8.99902H8.5V13.999C8.5 14.2752 8.27614 14.499 8 14.499C7.72386 14.499 7.5 14.2752 7.5 13.999V8.99902H2.5C2.22386 8.99902 2 8.77517 2 8.49902C2 8.22288 2.22386 7.99902 2.5 7.99902H7.5V2.99902C7.5 2.72288 7.72386 2.49902 8 2.49902Z" fill="#343A40"/>
</g>
</svg>
