<svg width="17" height="16" viewBox="0 0 17 16" fill="none" xmlns="http://www.w3.org/2000/svg">
<path fill-rule="evenodd" clip-rule="evenodd" d="M8 2.5C7.72386 2.5 7.5 2.72386 7.5 3L7.5 8.79289L5.35355 6.64645C5.15829 6.45118 4.84171 6.45118 4.64645 6.64645C4.45118 6.84171 4.45118 7.15829 4.64645 7.35355L7.64645 10.3536C7.84171 10.5488 8.15829 10.5488 8.35355 10.3536L11.3536 7.35355C11.5488 7.15829 11.5488 6.84171 11.3536 6.64645C11.1583 6.45118 10.8417 6.45118 10.6464 6.64645L8.5 8.79289L8.5 3C8.5 2.72386 8.27614 2.5 8 2.5Z" fill="#343A40"/>
<path fill-rule="evenodd" clip-rule="evenodd" d="M1 13C1 12.7239 1.22386 12.5 1.5 12.5L14.5 12.5C14.7761 12.5 15 12.7239 15 13C15 13.2761 14.7761 13.5 14.5 13.5L1.5 13.5C1.22386 13.5 1 13.2761 1 13Z" fill="#343A40"/>
<path fill-rule="evenodd" clip-rule="evenodd" d="M1.5 13.5C1.22386 13.5 1 13.2761 1 13L1 11C1 10.7239 1.22386 10.5 1.5 10.5C1.77614 10.5 2 10.7239 2 11L2 13C2 13.2761 1.77614 13.5 1.5 13.5Z" fill="#343A40"/>
<path fill-rule="evenodd" clip-rule="evenodd" d="M14.5 13.5C14.2239 13.5 14 13.2761 14 13L14 11C14 10.7239 14.2239 10.5 14.5 10.5C14.7761 10.5 15 10.7239 15 11L15 13C15 13.2761 14.7761 13.5 14.5 13.5Z" fill="#343A40"/>
</svg>
