<svg width="17" height="16" viewBox="0 0 17 16" fill="none" xmlns="http://www.w3.org/2000/svg">
<g id="exclamation-octagon-fill">
<path id="Subtract" d="M11.8156 0.146447C11.7219 0.0526784 11.5947 0 11.4621 0H5.24887C5.11626 0 4.98908 0.0526784 4.89531 0.146447L0.501915 4.53984C0.408147 4.63361 0.355469 4.76079 0.355469 4.8934V11.1066C0.355469 11.2392 0.408147 11.3664 0.501915 11.4602L4.89531 15.8536C4.98908 15.9473 5.11626 16 5.24887 16H11.4621C11.5947 16 11.7219 15.9473 11.8156 15.8536L16.209 11.4602C16.3028 11.3664 16.3555 11.2392 16.3555 11.1066V4.8934C16.3555 4.76079 16.3028 4.63361 16.209 4.53984L11.8156 0.146447ZM8.35547 4C8.89088 4 9.30924 4.46228 9.25597 4.99504L8.90522 8.50248C8.87698 8.78492 8.63931 9 8.35547 9C8.07162 9 7.83396 8.78492 7.80572 8.50248L7.45497 4.99504C7.4017 4.46229 7.82006 4 8.35547 4ZM8.35701 10C8.90929 10 9.35701 10.4477 9.35701 11C9.35701 11.5523 8.90929 12 8.35701 12C7.80473 12 7.35701 11.5523 7.35701 11C7.35701 10.4477 7.80473 10 8.35701 10Z" fill="#343A40"/>
</g>
</svg>
