<svg width="16" height="16" viewBox="0 0 16 16" fill="none" xmlns="http://www.w3.org/2000/svg">
<g id="file">
<path id="Union" fill-rule="evenodd" clip-rule="evenodd" d="M9.03398 1.02959L9.01172 1H9.00439H3.5C2.67157 1 2 1.67157 2 2.5V13.5C2 14.3284 2.67157 15 3.5 15H12.5C13.3284 15 14 14.3284 14 13.5V5.99561V5.96691L13.548 5.54357L13 4.99561L10.0044 2L9.03398 1.02959ZM9.00439 2H3.5C3.22386 2 3 2.22386 3 2.5V13.5C3 13.7761 3.22386 14 3.5 14H12.5C12.7761 14 13 13.7761 13 13.5V5.99561H12.5858H10.0044C9.45211 5.99561 9.00439 5.54789 9.00439 4.99561V2.41421V2ZM10.0044 4.99561V3.41421L11.5858 4.99561H10.0044Z" fill="white"/>
</g>
</svg>
