<svg width="16" height="16" viewBox="0 0 16 16" fill="none" xmlns="http://www.w3.org/2000/svg">
<g id="list">
<g id="Vector">
<path d="M12.5 2C12.7761 2 13 2.22386 13 2.5V13.5C13 13.7761 12.7761 14 12.5 14H3.5C3.22386 14 3 13.7761 3 13.5V2.5C3 2.22386 3.22386 2 3.5 2H12.5ZM3.5 1C2.67157 1 2 1.67157 2 2.5V13.5C2 14.3284 2.67157 15 3.5 15H12.5C13.3284 15 14 14.3284 14 13.5V2.5C14 1.67157 13.3284 1 12.5 1H3.5Z" fill="#343A40"/>
<path d="M5 5.5C5 5.22386 5.22386 5 5.5 5H10.5C10.7761 5 11 5.22386 11 5.5C11 5.77614 10.7761 6 10.5 6H5.5C5.22386 6 5 5.77614 5 5.5ZM5 8C5 7.72386 5.22386 7.5 5.5 7.5H10.5C10.7761 7.5 11 7.72386 11 8C11 8.27614 10.7761 8.5 10.5 8.5H5.5C5.22386 8.5 5 8.27614 5 8ZM5 10.5C5 10.2239 5.22386 10 5.5 10H9.5C9.77614 10 10 10.2239 10 10.5C10 10.7761 9.77614 11 9.5 11H5.5C5.22386 11 5 10.7761 5 10.5Z" fill="#343A40"/>
</g>
</g>
</svg>
