<svg width="32" height="32" viewBox="0 0 32 32" fill="none" xmlns="http://www.w3.org/2000/svg">
<path d="M0 16C0 7.16344 7.16344 0 16 0C24.8366 0 32 7.16344 32 16C32 24.8366 24.8366 32 16 32C7.16344 32 0 24.8366 0 16Z" fill="white"/>
<path fill-rule="evenodd" clip-rule="evenodd" d="M27 13.3555H21.9153V17.1733H13.0169V25.436H27V17.8046H27V13.3555ZM18.1017 19.0875H14.9237V22.2642H18.1017V19.0875Z" fill="black"/>
<path fill-rule="evenodd" clip-rule="evenodd" d="M6.02539 19.0801H11.1101V15.2628H20.0084V7.00008H6.02539V14.6309V15.2628V19.0801ZM14.9237 13.3473H18.1017V10.1707H14.9237V13.3473Z" fill="#0AB968"/>
</svg>
