<svg width="32" height="32" viewBox="0 0 32 32" fill="none" xmlns="http://www.w3.org/2000/svg">
<path d="M7.21967 8.28033C6.92678 7.98744 6.92678 7.51256 7.21967 7.21967C7.51256 6.92678 7.98744 6.92678 8.28033 7.21967L16 14.9393L23.7197 7.21967C24.0126 6.92678 24.4874 6.92678 24.7803 7.21967C25.0732 7.51256 25.0732 7.98744 24.7803 8.28033L17.0607 16L24.7803 23.7197C25.0732 24.0126 25.0732 24.4874 24.7803 24.7803C24.4874 25.0732 24.0126 25.0732 23.7197 24.7803L16 17.0607L8.28033 24.7803C7.98744 25.0732 7.51256 25.0732 7.21967 24.7803C6.92678 24.4874 6.92678 24.0126 7.21967 23.7197L14.9393 16L7.21967 8.28033Z" fill="#6C757D"/>
</svg>
