<svg width="16" height="17" viewBox="0 0 16 17" fill="none" xmlns="http://www.w3.org/2000/svg">
<g id="plus">
<path id="Vector (Stroke)" fill-rule="evenodd" clip-rule="evenodd" d="M8 2.2168C8.27614 2.2168 8.5 2.44065 8.5 2.7168V7.7168H13.5C13.7761 7.7168 14 7.94065 14 8.2168C14 8.49294 13.7761 8.7168 13.5 8.7168H8.5V13.7168C8.5 13.9929 8.27614 14.2168 8 14.2168C7.72386 14.2168 7.5 13.9929 7.5 13.7168V8.7168H2.5C2.22386 8.7168 2 8.49294 2 8.2168C2 7.94065 2.22386 7.7168 2.5 7.7168H7.5V2.7168C7.5 2.44065 7.72386 2.2168 8 2.2168Z" fill="#0AB968"/>
</g>
</svg>
