<svg width="25" height="24" viewBox="0 0 25 24" fill="none" xmlns="http://www.w3.org/2000/svg">
<g id="search">
<g id="Vector">
<path fill-rule="evenodd" clip-rule="evenodd" d="M10.25 18C14.8063 18 18.5 14.3063 18.5 9.75C18.5 5.19365 14.8063 1.5 10.25 1.5C5.69365 1.5 2 5.19365 2 9.75C2 14.3063 5.69365 18 10.25 18ZM20 9.75C20 15.1348 15.6348 19.5 10.25 19.5C4.86522 19.5 0.5 15.1348 0.5 9.75C0.5 4.36522 4.86522 0 10.25 0C15.6348 0 20 4.36522 20 9.75Z" fill="white"/>
<path d="M16.0158 17.6132C16.0601 17.6732 16.1093 17.7307 16.1636 17.785L21.9393 23.5607C22.5251 24.1465 23.4749 24.1465 24.0607 23.5607C24.6465 22.9749 24.6465 22.0251 24.0607 21.4393L18.285 15.6636C18.2307 15.6093 18.1732 15.5601 18.1132 15.5158C17.5248 16.3169 16.8169 17.0248 16.0158 17.6132Z" fill="white"/>
</g>
</g>
</svg>
